<svg width="32" height="32" viewBox="0 0 32 32" fill="none" xmlns="http://www.w3.org/2000/svg">
<path fill-rule="evenodd" clip-rule="evenodd" d="M5.38415 24.4465L12.1976 21.1059L9.93151 10.3177L15.4608 13.5526L23.3504 21.607C23.3504 21.607 24.3082 23.4961 24.1082 24.1153C23.9083 24.7345 19.1646 28.6181 18.2572 29.2268C18.1052 29.3287 17.648 29.3273 16.9902 29.2542C16.6029 29.2112 15.9658 30.0305 15.4608 29.9444C14.9263 29.8532 14.0604 29.9239 13.3598 29.6231C12.8872 29.4201 12.9924 28.8323 12.6214 28.7532C11.9057 28.6005 11.2519 28.3953 10.5363 28.2324C10.107 28.1346 9.9782 28.6516 9.52185 28.5479C9.06549 28.4441 7.47479 28.3113 7.08617 28.0746C6.69756 27.838 6.94598 27.2245 6.68377 27.1623C5.30377 26.8351 5.26804 26.758 5.15688 26.758C4.75451 26.758 5.38415 24.4465 5.38415 24.4465Z" fill="black"/>
<path fill-rule="evenodd" clip-rule="evenodd" d="M9.16287 21.9923C10.2058 19.9083 8.68468 20.1584 8.27232 20.4236C8.03912 20.5736 8.68766 20.5435 8.92683 20.4236C9.4727 20.1499 10.2791 20.1552 10.9758 20.3165C12.1976 20.5994 11.5331 22.6942 11.1011 23.2805C10.923 23.5223 9.67489 23.2805 9.06271 23.2805C8.6794 23.2805 8.77957 22.7582 9.16287 21.9923Z" fill="#2C2C2B"/>
<path fill-rule="evenodd" clip-rule="evenodd" d="M14.2097 20.7233C13.9995 19.8625 13.9557 20.1223 12.9417 19.5335C11.9276 18.9446 11.4291 18.6376 10.9759 18.4C10.5227 18.1623 8.7547 18.4372 8.64084 19.0581C8.52698 19.6791 8.33315 20.5865 9.3285 20.306C9.67974 20.207 10.5011 20.2303 10.7992 20.306C11.0973 20.3817 11.328 20.456 11.5607 20.8978C11.91 21.5612 10.7474 23.0849 11.2126 23.3842C11.6779 23.6835 13.0665 22.9079 13.5958 22.3958C14.1251 21.8837 14.4198 21.584 14.2097 20.7233Z" fill="#53556E"/>
<path fill-rule="evenodd" clip-rule="evenodd" d="M6.01392 22.7113C7.17356 21.5074 9.79267 21.7342 9.79267 22.7113C9.79267 22.9016 8.93212 22.4098 7.9033 23.4598C6.52798 24.8634 6.52798 26.3395 6.52798 26.3395C6.52798 26.3395 5.64613 26.2285 5.38413 25.9975C5.12213 25.7664 4.85428 23.9152 6.01392 22.7113Z" fill="#FEDB06"/>
<path fill-rule="evenodd" clip-rule="evenodd" d="M13.3343 21.6071C13.6235 21.6071 21.0152 22.6106 21.3448 22.8716C21.4274 22.9371 21.2338 23.2913 20.887 23.79C20.5372 24.293 17.8342 24.3102 17.2992 24.9592C16.2504 26.2314 15.7915 28.1323 15.4691 28.2812C14.8191 28.5812 6.76658 26.5467 6.36956 26.2466C6.18066 26.1038 5.99538 24.5515 7.66949 22.8716C8.73226 21.8052 10.8835 22.9386 11.7366 22.2393C12.3641 21.725 13.2701 21.6071 13.3343 21.6071Z" fill="#7B7C93"/>
<path fill-rule="evenodd" clip-rule="evenodd" d="M14.4835 20.3631C14.944 20.7288 20.677 21.0771 20.9298 21.0771C21.1825 21.0771 20.677 22.6223 20.9298 22.9381C21.1825 23.2539 13.5958 22.3534 13.5958 21.9226C13.5958 21.4917 14.023 19.9974 14.4835 20.3631Z" fill="#3B3B39"/>
<path fill-rule="evenodd" clip-rule="evenodd" d="M14.0604 10.5648C14.5544 10.2317 17.1685 9.38788 18.7298 9.62973C19.7343 9.78533 21.6602 10.5385 22.6349 11.1958C23.6096 11.8531 22.1595 19.3959 22.1595 19.895C22.1595 20.3941 21.1206 19.6935 19.6279 21.5521C18.9617 22.3816 16.6634 21.0286 16.116 21.0286C15.0925 21.0286 14.4835 21.0286 14.2012 20.6606C14.1345 20.5736 13.0444 19.7299 12.9416 18.9005C12.6095 16.2206 13.2561 11.1072 14.0604 10.5648Z" fill="#7B7C93"/>
<path fill-rule="evenodd" clip-rule="evenodd" d="M20.2762 21.6071H23.0183L23.1427 22.5535C23.1427 22.5535 22.1272 24.9423 22.0492 25.0775C21.9713 25.2127 21.4337 25.5178 21.4337 25.5178C21.4337 25.5178 21.5915 25.7988 20.7937 25.3711C19.9959 24.9433 19.0449 24.2371 19.0449 24.2371C19.0449 24.2371 20.3915 23.5661 20.6521 23.0094C20.9128 22.4527 20.2762 21.6071 20.2762 21.6071Z" fill="#2C2C2B"/>
<path fill-rule="evenodd" clip-rule="evenodd" d="M24.806 5.79712C25.0478 5.64903 25.9351 5.80093 26.1673 5.98345C26.1673 5.98345 25.9351 6.33775 25.6573 7.12022C23.4626 13.3013 23.6045 22.2456 23.4774 21.2916C23.3504 20.3375 22.4457 20.4579 22.0914 20.241C21.7962 20.0602 23.1168 10.4738 23.936 7.12022C24.0952 6.46855 24.747 5.83324 24.806 5.79712Z" fill="#46475C"/>
<path fill-rule="evenodd" clip-rule="evenodd" d="M25.5375 4.22119C25.6387 4.22119 25.6677 4.69446 25.6759 5.1451C25.6799 5.36808 25.6759 5.8511 25.6759 5.8511C25.6759 5.8511 25.318 5.73736 25.2489 5.8511C24.9434 6.35447 24.4229 6.74835 24.0787 7.46832C23.1976 9.31168 22.6301 11.7606 22.5503 11.8675C22.4218 12.0397 21.7588 12.0634 21.7588 12.0634C21.7588 12.0634 21.4075 10.4709 21.9834 9.25529C22.9735 7.16549 25.4738 4.22119 25.5375 4.22119Z" fill="#9597B3"/>
<path fill-rule="evenodd" clip-rule="evenodd" d="M16.9518 24.8043C18.6128 23.5629 20.3621 23.7888 21.7587 24.6844C21.9515 24.808 20.1473 24.1709 19.0064 25.2157C18.5324 25.6497 18.1146 28.5479 18.1146 28.5479C18.1146 28.5479 15.7355 28.3139 15.4909 28.3002C15.2463 28.2865 15.2908 26.0456 16.9518 24.8043Z" fill="#FEDB06"/>
<path fill-rule="evenodd" clip-rule="evenodd" d="M11.6821 9.74248C11.887 9.80992 12.2547 10.1488 12.7767 10.3432C13.2353 10.5141 14.0598 10.2846 14.1528 10.3432C14.4643 10.5394 13.8207 11.1743 13.5958 12.0799C13.2501 13.4715 12.9416 16.1028 12.9416 17.8183C12.9416 17.9556 12.4362 17.6128 11.6405 16.0147C11.2819 15.2947 11.2884 9.61291 11.6821 9.74248Z" fill="#51536B"/>
<path fill-rule="evenodd" clip-rule="evenodd" d="M10.6488 6.94719C10.7946 6.29299 13.0931 4.21128 13.5714 4.25508C13.7605 4.27238 12.7966 5.16618 12.4426 5.56187C12.0886 5.95757 11.7142 6.66568 11.6821 6.94719C11.5528 8.07854 11.7066 9.20442 11.6821 9.79485C11.568 12.5385 11.6821 14.6605 11.6821 15.6001C11.6821 16.3455 12.9416 17.3604 12.9416 17.8183C12.9416 18.2762 13.7319 19.9405 13.5714 19.9405C12.7301 19.9405 10.5181 16.7377 10.158 15.6001C9.87094 14.6931 10.1846 9.02996 10.6488 6.94719Z" fill="#F2D106"/>
<path fill-rule="evenodd" clip-rule="evenodd" d="M9.49231 7.23411C9.65243 6.514 13.7229 3.58029 14.2012 3.62396C14.3903 3.64121 11.3299 6.2628 10.9758 6.65736C10.6218 7.05193 10.5862 7.90401 10.5541 8.18472C10.4248 9.31285 10.447 10.2021 10.4225 10.7909C10.3084 13.5267 10.28 14.6512 10.28 15.5882C10.28 16.3315 12.0987 18.744 12.7568 19.3365C13.4148 19.929 10.7118 18.3436 10.5541 18.2128C9.95505 17.7157 9.2415 16.866 8.88143 15.7317C8.59437 14.8273 9.14421 8.79968 9.49231 7.23411Z" fill="#7B7C93"/>
<path fill-rule="evenodd" clip-rule="evenodd" d="M16.7694 11.0812C17.1707 11.0812 19.6943 11.2899 20.0594 11.4794C20.4244 11.669 20.5395 12.7352 20.4275 12.9939C20.3156 13.2527 18.7902 18.8156 18.2572 18.8156C17.7243 18.8156 16.7088 18.6237 16.5036 18.3151C16.2983 18.0066 15.8257 12.793 15.8511 12.3718C15.8765 11.9506 16.3681 11.0812 16.7694 11.0812Z" fill="#F2D106"/>
<path fill-rule="evenodd" clip-rule="evenodd" d="M22.5503 11.3943C22.674 10.6605 23.0625 9.09992 23.828 7.65648C24.2051 6.94554 25.2489 5.73737 25.2489 5.73737C25.2489 5.73737 23.5701 9.22193 23.3713 10.5799C22.569 16.0614 22.2448 20.3413 22.0914 20.2178C21.938 20.0944 21.1912 20.3336 21.1912 20.2178C21.1912 20.1021 22.2733 13.0371 22.5503 11.3943Z" fill="#FEDB06"/>
<path fill-rule="evenodd" clip-rule="evenodd" d="M16.3966 2.83521C16.6772 2.83521 16.0906 8.92485 16.0906 8.92485C16.0906 8.92485 16.1511 10.1442 16.7204 10.1442C17.088 10.1442 15.2811 10.6634 14.831 10.7563C13.4476 11.0421 11.7372 9.54421 12.3119 6.84457C12.8865 4.14493 16.116 2.83521 16.3966 2.83521Z" fill="#66677A"/>
<path fill-rule="evenodd" clip-rule="evenodd" d="M16.3966 2.83524C16.8627 2.5417 23.0972 3.20519 22.7694 3.69268C22.4417 4.18016 20.4889 10.5493 19.9809 10.5493C19.4728 10.5493 17.2626 10.7293 16.5585 10.2157C15.8545 9.70201 15.984 8.59739 16.116 7.72976C16.5679 4.75905 16.1488 2.99127 16.3966 2.83524Z" fill="#51536B"/>
<path fill-rule="evenodd" clip-rule="evenodd" d="M26.4702 6.56981C26.4223 6.2798 26.1645 6.02386 26.1129 6.02386C26.0614 6.02386 25.0507 8.10981 24.5647 10.7423C24.0787 13.3748 23.8188 15.2117 23.6481 17.1429C23.4774 19.0742 23.4774 20.3918 23.4774 20.8841C23.4774 21.3763 23.6415 21.552 23.6415 21.552C23.6415 21.552 23.8627 21.552 24.2779 21.0689C24.6931 20.5858 25.1332 18.9293 25.4386 17.6406C25.7439 16.3518 25.7124 15.6086 25.9002 14.2221C26.0879 12.8355 26.017 12.9502 26.1673 11.262C26.3175 9.5738 26.4493 8.32058 26.4702 7.81638C26.4911 7.31218 26.5182 6.85981 26.4702 6.56981Z" fill="#A3A0B1"/>
<path fill-rule="evenodd" clip-rule="evenodd" d="M8.98349 20.3029C9.14486 20.3579 9.15075 20.4096 8.92284 20.4756C8.46961 20.6067 7.77348 20.6365 7.09949 20.5513C6.08657 20.4232 6.18645 19.8666 6.17729 19.5454C6.16813 19.2242 5.94716 18.6846 8.07751 18.3652C9.12774 18.2077 10.7893 18.3151 10.7893 18.3151C10.7893 18.3151 11.1478 18.595 11.3516 18.6887C11.5011 18.7575 10.53 18.3922 9.42068 18.6395C8.65086 18.8112 8.60821 18.9169 8.60821 19.5225C8.60821 19.7877 8.54399 20.1529 8.98349 20.3029Z" fill="#7B7C93"/>
<path fill-rule="evenodd" clip-rule="evenodd" d="M24.0787 22.155C23.9161 21.1758 23.6415 20.7302 23.1427 20.5028C22.6439 20.2753 22.5216 20.4304 21.9162 20.2833C21.3107 20.1363 20.2373 20.0622 20.1493 20.7687C20.0612 21.4751 19.9225 22.4629 20.6926 22.1437C20.9644 22.0311 21.5134 21.7648 21.7587 21.7648C22.004 21.7648 22.5237 22.1537 22.7037 22.6562C22.8972 23.1965 22.2166 24.3514 21.9854 24.9754C21.8937 25.223 21.4154 25.0022 21.505 25.1154C21.8937 25.6069 22.4589 24.6094 23.0183 24.2099C23.5777 23.8104 24.2413 23.1342 24.0787 22.155Z" fill="#A3A0B1"/>
<path fill-rule="evenodd" clip-rule="evenodd" d="M20.5489 22.119C20.6905 22.1707 20.7399 22.1707 20.4991 22.2324C20.0808 22.3396 19.2016 22.199 18.6098 22.119C17.7204 21.9986 17.8399 21.5195 17.8318 21.2178C17.8238 20.916 17.607 20.1859 19.5003 20.1089C20.4798 20.0691 21.5188 19.855 22.1112 19.9784C22.7037 20.1018 23.0669 20.4147 23.2458 20.5028C23.4247 20.5909 21.8561 20.3072 21.0027 20.5028C20.1493 20.6983 20.2193 20.6983 20.2193 21.2673C20.2193 21.5165 20.163 21.978 20.5489 22.119Z" fill="#8B8CA6"/>
<path fill-rule="evenodd" clip-rule="evenodd" d="M18.1375 28.5479L22.1611 25.0774C22.1611 25.0774 20.8614 23.8764 19.5102 24.7077C18.159 25.539 18.1375 28.5479 18.1375 28.5479Z" fill="#A3A0B1"/>
<path fill-rule="evenodd" clip-rule="evenodd" d="M17.5955 6.22674C17.8043 5.79248 20.263 6.14949 20.4992 6.42439C20.7353 6.69929 20.9419 7.98477 20.7818 8.38426C20.6223 8.78219 19.615 11.1285 20.1039 11.4475C20.3431 11.6035 16.6948 11.6574 16.2513 10.8217C15.5544 9.50867 17.3868 6.66101 17.5955 6.22674Z" fill="#FEDB06"/>
<path fill-rule="evenodd" clip-rule="evenodd" d="M22.7819 3.6235C22.9993 3.20269 23.4774 3.86174 23.4774 4.09674C23.4774 4.33175 20.0374 10.2157 20.3609 11.3425C20.6155 12.2293 20.0555 11.7866 19.7936 10.9118C19.5953 10.2495 20.0887 8.46363 20.8384 6.85473C21.5885 5.24504 22.6731 3.83396 22.7819 3.6235Z" fill="#A3A0B1"/>
<path fill-rule="evenodd" clip-rule="evenodd" d="M11.3126 6.08881C11.8723 4.93299 13.5183 3.84893 14.2012 3.48016C15.7459 2.64604 16.665 2.40078 19.2396 2.49083C22.3801 2.60069 25.6052 4.09697 25.5375 4.22119C25.4173 4.44158 20.555 9.77606 21.8885 12.0296C22.0092 12.2336 20.7412 12.2336 20.3671 12.0296C20.0719 11.8687 19.9449 10.1553 20.7412 8.18588C21.5625 6.15455 23.4792 3.98765 23.3504 3.92357C21.7681 3.13644 17.8323 2.89021 16.5788 2.89021C15.3254 2.89021 13.2393 5.13085 13.2172 5.15628C11.5 7.1271 12.6974 9.66997 12.9416 9.87978C13.6336 10.4742 14.726 10.791 14.726 10.791C14.726 10.791 12.8076 11.692 11.368 9.87978C11.3434 9.84884 11.3283 9.81159 11.3126 9.77606C10.8636 8.76112 10.8636 7.01596 11.3126 6.08881Z" fill="#FEDB06"/>
</svg>
