<svg width="32" height="32" viewBox="0 0 32 32" fill="none" xmlns="http://www.w3.org/2000/svg">
<path fill-rule="evenodd" clip-rule="evenodd" d="M6.39998 16.4909L13.4941 13.0065L16.8918 13.5292L21.7734 14.222L25.1064 13.5292C25.1064 13.5292 26.1036 15.4997 25.8955 16.1455C25.6873 16.7913 20.7481 20.8422 19.8034 21.477C19.6451 21.5833 19.1691 21.5818 18.4841 21.5056C18.0809 21.4607 17.4176 22.3154 16.8918 22.2255C16.3353 22.1304 15.4337 22.2042 14.7042 21.8904C14.2122 21.6787 14.3217 21.0655 13.9354 20.983C13.1902 20.8238 12.5095 20.6098 11.7644 20.4398C11.3174 20.3378 11.1833 20.8771 10.7081 20.7689C10.233 20.6607 8.57674 20.5221 8.17212 20.2753C7.76749 20.0285 8.02615 19.3885 7.75313 19.3237C6.31628 18.9824 6.27909 18.9019 6.16334 18.9019C5.7444 18.9019 6.39998 16.4909 6.39998 16.4909Z" fill="black"/>
<path fill-rule="evenodd" clip-rule="evenodd" d="M10.3344 13.9311C11.4203 11.7574 9.83653 12.0182 9.40718 12.2948C9.16438 12.4513 9.83963 12.4199 10.0887 12.2948C10.657 12.0094 11.489 11.8732 12.213 12.047C13.4015 12.3322 12.8023 14.6632 12.3525 15.2747C12.1671 15.5269 10.8675 15.2747 10.2301 15.2747C9.83103 15.2747 9.93533 14.73 10.3344 13.9311Z" fill="#294889"/>
<path fill-rule="evenodd" clip-rule="evenodd" d="M10.3344 13.9311C11.4203 11.7574 9.83653 12.0182 9.40718 12.2948C9.16438 12.4513 9.83963 12.4199 10.0887 12.2948C10.657 12.0094 11.489 11.8732 12.213 12.047C13.4015 12.3322 12.8023 14.6632 12.3525 15.2747C12.1671 15.5269 10.8675 15.2747 10.2301 15.2747C9.83103 15.2747 9.93533 14.73 10.3344 13.9311Z" fill="url(#paint0_linear)"/>
<path fill-rule="evenodd" clip-rule="evenodd" d="M15.4337 12.8784C15.2149 11.9806 15.4707 11.7625 14.7219 11.1183C13.9731 10.4742 12.8305 10.3706 12.1284 10.1901C11.4264 10.0095 9.90938 10.2229 9.79084 10.8706C9.67229 11.5183 9.48574 12.424 10.5221 12.1314C10.8878 12.0281 11.743 12.0524 12.0534 12.1314C12.3638 12.2103 12.5887 12.3287 12.8309 12.7895C13.1947 13.4814 11.9841 15.0708 12.4686 15.383C12.953 15.6952 14.3988 14.8861 14.9499 14.352C15.5011 13.8178 15.6525 13.7762 15.4337 12.8784Z" fill="#294789"/>
<path fill-rule="evenodd" clip-rule="evenodd" d="M7.0557 14.681C8.26312 13.4253 10.9901 13.6619 10.9901 14.681C10.9901 14.8794 10.0941 14.3665 9.02291 15.4617C7.59094 16.9257 7.59094 18.4654 7.59094 18.4654C7.59094 18.4654 6.67276 18.3497 6.39996 18.1086C6.12717 17.8676 5.84829 15.9367 7.0557 14.681Z" fill="#FEDB06"/>
<path fill-rule="evenodd" clip-rule="evenodd" d="M14.6777 13.5292C14.9787 13.5292 22.675 14.576 23.0181 14.8483C23.1042 14.9166 22.9026 15.286 22.5415 15.8061C22.1773 16.3308 19.363 16.3488 18.806 17.0257C17.7139 18.3526 17.2361 20.3354 16.9004 20.4907C16.2236 20.8037 7.83937 18.6815 7.42599 18.3685C7.22931 18.2196 7.0364 16.6005 8.77948 14.8483C9.88603 13.7359 12.1259 14.9181 13.0141 14.1887C13.6675 13.6523 14.6108 13.5292 14.6777 13.5292Z" fill="#4264AD"/>
<path fill-rule="evenodd" clip-rule="evenodd" d="M21.9055 13.5292H24.7607L24.8902 14.5165C24.8902 14.5165 23.8328 17.008 23.7516 17.1491C23.6705 17.2901 23.1107 17.6084 23.1107 17.6084C23.1107 17.6084 23.2751 17.9015 22.4444 17.4553C21.6137 17.0092 20.6235 16.2725 20.6235 16.2725C20.6235 16.2725 22.0256 15.5726 22.2969 14.9919C22.5683 14.4113 21.9055 13.5292 21.9055 13.5292Z" fill="#294889"/>
<path fill-rule="evenodd" clip-rule="evenodd" d="M21.9055 13.5292H24.7607L24.8902 14.5165C24.8902 14.5165 23.8328 17.008 23.7516 17.1491C23.6705 17.2901 23.1107 17.6084 23.1107 17.6084C23.1107 17.6084 23.2751 17.9015 22.4444 17.4553C21.6137 17.0092 20.6235 16.2725 20.6235 16.2725C20.6235 16.2725 22.0256 15.5726 22.2969 14.9919C22.5683 14.4113 21.9055 13.5292 21.9055 13.5292Z" fill="url(#paint1_linear)"/>
<path fill-rule="evenodd" clip-rule="evenodd" d="M18.4442 16.8641C20.1736 15.5693 21.995 15.8049 23.4492 16.7391C23.6498 16.868 21.7714 16.2035 20.5834 17.2932C20.0899 17.7459 19.655 20.7689 19.655 20.7689C19.655 20.7689 17.1778 20.5248 16.9232 20.5106C16.6685 20.4963 16.7148 18.1588 18.4442 16.8641Z" fill="#FEDB06"/>
<path fill-rule="evenodd" clip-rule="evenodd" d="M10.1476 12.1689C10.3156 12.2263 10.3259 12.226 10.0886 12.2948C9.61671 12.4316 8.8919 12.4627 8.19014 12.3738C7.13549 12.2402 7.2353 11.7138 7.22576 11.3788C7.21623 11.0438 6.98615 10.481 9.20427 10.1478C10.2978 9.98349 10.8263 10.0005 11.1347 10.0005C11.443 10.0005 12.222 10.1285 12.914 10.3227C13.1112 10.3781 11.7578 10.176 10.6028 10.434C9.80123 10.613 9.75682 10.7232 9.75682 11.3549C9.75682 11.6316 9.68996 12.0124 10.1476 12.1689Z" fill="#4264AD"/>
<path fill-rule="evenodd" clip-rule="evenodd" d="M25.8647 14.1008C25.6954 13.0795 25.4094 12.6147 24.8901 12.3775C24.3708 12.1402 24.2434 12.3019 23.6131 12.1486C22.9827 11.9952 21.8651 11.9179 21.7734 12.6548C21.6816 13.3916 21.5373 14.4219 22.3391 14.0891C22.6221 13.9716 23.1937 13.6938 23.4491 13.6938C23.7045 13.6938 24.2456 14.0994 24.433 14.6236C24.6345 15.1872 23.9259 16.3918 23.6852 17.0426C23.5896 17.3009 23.0917 17.0705 23.185 17.1887C23.5896 17.7013 24.1782 16.6609 24.7606 16.2442C25.343 15.8275 26.034 15.1222 25.8647 14.1008Z" fill="#4264AD"/>
<path fill-rule="evenodd" clip-rule="evenodd" d="M22.1895 14.0632C22.337 14.1172 22.3884 14.1172 22.1377 14.1815C21.7021 14.2933 20.7867 14.1467 20.1705 14.0632C19.2444 13.9377 19.3689 13.4379 19.3605 13.1232C19.3521 12.8085 19.1264 12.0469 21.0977 11.9666C22.1175 11.9251 23.1993 11.7017 23.8162 11.8305C24.4331 11.9593 24.8112 12.2856 24.9975 12.3775C25.1838 12.4693 23.5506 12.1735 22.662 12.3775C21.7734 12.5814 21.8464 12.5814 21.8464 13.1749C21.8464 13.4348 21.7877 13.9162 22.1895 14.0632Z" fill="#294789"/>
<path fill-rule="evenodd" clip-rule="evenodd" d="M19.6786 20.7689L23.8681 17.1491C23.8681 17.1491 22.5149 15.8963 21.108 16.7634C19.7011 17.6305 19.6786 20.7689 19.6786 20.7689Z" fill="#4264AD"/>
<defs>
<linearGradient id="paint0_linear" x1="13.6083" y1="15.3363" x2="12.535" y2="12.7491" gradientUnits="userSpaceOnUse">
<stop stop-opacity="0.01"/>
<stop offset="1" stop-opacity="0.5"/>
</linearGradient>
<linearGradient id="paint1_linear" x1="25.7304" y1="17.6626" x2="24.3918" y2="14.5071" gradientUnits="userSpaceOnUse">
<stop stop-opacity="0.01"/>
<stop offset="1" stop-opacity="0.5"/>
</linearGradient>
</defs>
</svg>
