<svg width="32" height="32" viewBox="0 0 32 32" fill="none" xmlns="http://www.w3.org/2000/svg">
<path fill-rule="evenodd" clip-rule="evenodd" d="M6.38482 24.4465L13.2102 21.1058L18.3208 16.262L16.4792 13.5526L24.3826 21.607C24.3826 21.607 25.3421 23.4961 25.1418 24.1153C24.9415 24.7345 20.1895 28.6181 19.2805 29.2268C19.1282 29.3287 18.6702 29.3272 18.0112 29.2542C17.6233 29.2112 16.985 30.0305 16.4792 29.9444C15.9438 29.8531 15.0763 29.9239 14.3745 29.6231C13.9011 29.4201 14.0065 28.8323 13.6347 28.7531C12.9178 28.6005 12.2629 28.3953 11.5461 28.2324C11.116 28.1346 10.9869 28.6516 10.5298 28.5479C10.0726 28.4441 8.47913 28.3112 8.08983 28.0746C7.70054 27.838 7.94939 27.2244 7.68672 27.1623C6.3043 26.8351 6.26851 26.758 6.15715 26.758C5.75408 26.758 6.38482 24.4465 6.38482 24.4465Z" fill="black"/>
<path fill-rule="evenodd" clip-rule="evenodd" d="M10.1702 21.9923C11.2149 19.9083 9.69117 20.1584 9.27808 20.4236C9.04448 20.5736 9.69415 20.5435 9.93374 20.4236C10.4806 20.1499 11.2898 20.1499 11.9863 20.3165C13.1299 20.59 12.5446 22.6941 12.1119 23.2805C11.9334 23.5222 10.6831 23.2805 10.0699 23.2805C9.68587 23.2805 9.78622 22.7582 10.1702 21.9923Z" fill="#892929"/>
<path fill-rule="evenodd" clip-rule="evenodd" d="M10.1702 21.9923C11.2149 19.9083 9.69117 20.1584 9.27808 20.4236C9.04448 20.5736 9.69415 20.5435 9.93374 20.4236C10.4806 20.1499 11.2898 20.1499 11.9863 20.3165C13.1299 20.59 12.5446 22.6941 12.1119 23.2805C11.9334 23.5222 10.6831 23.2805 10.0699 23.2805C9.68587 23.2805 9.78622 22.7582 10.1702 21.9923Z" fill="url(#paint0_linear)"/>
<path fill-rule="evenodd" clip-rule="evenodd" d="M15.0763 20.9831C14.8658 20.1223 15.1119 19.9132 14.3915 19.2956C13.671 18.678 12.5717 18.5787 11.8962 18.4057C11.2208 18.2326 9.76125 18.4372 9.64719 19.0581C9.53313 19.6791 9.35365 20.5474 10.3507 20.2668C10.7026 20.1679 11.5254 20.1912 11.8241 20.2668C12.1227 20.3425 12.3391 20.456 12.5721 20.8978C12.9221 21.5612 11.7574 23.0849 12.2235 23.3842C12.6895 23.6835 14.0806 22.9079 14.6108 22.3958C15.1411 21.8837 15.2868 21.8438 15.0763 20.9831Z" fill="#892929"/>
<path fill-rule="evenodd" clip-rule="evenodd" d="M7.01573 22.7112C8.17741 21.5073 10.8011 21.7342 10.8011 22.7112C10.8011 22.9015 9.93905 22.4098 8.90842 23.4597C7.5307 24.8633 7.5307 26.3394 7.5307 26.3394C7.5307 26.3394 6.6473 26.2285 6.38483 25.9974C6.12237 25.7663 5.85406 23.9151 7.01573 22.7112Z" fill="#FEDB06"/>
<path fill-rule="evenodd" clip-rule="evenodd" d="M14.349 21.6071C14.6386 21.6071 22.0433 22.6106 22.3734 22.8716C22.4563 22.9371 22.2623 23.2913 21.9149 23.79C21.5645 24.293 18.8568 24.3102 18.3208 24.9592C17.2701 26.2314 16.8104 28.1323 16.4874 28.2812C15.8363 28.5812 7.76969 26.5467 7.37197 26.2466C7.18273 26.1038 6.99713 24.5515 8.67418 22.8716C9.73881 21.8052 11.8938 22.9386 12.7484 22.2393C13.377 21.725 14.2846 21.6071 14.349 21.6071Z" fill="#AD4242"/>
<path fill-rule="evenodd" clip-rule="evenodd" d="M15.5001 20.3631C15.9615 20.7288 21.7045 21.0771 21.9577 21.0771C22.2109 21.0771 21.7045 22.6223 21.9577 22.9381C22.2109 23.2539 14.6108 22.3534 14.6108 21.9226C14.6108 21.4917 15.0388 19.9974 15.5001 20.3631Z" fill="#892929"/>
<path fill-rule="evenodd" clip-rule="evenodd" d="M15.0763 10.5648C15.5711 10.2317 18.1899 9.38788 19.7539 9.62973C20.7602 9.78533 22.6895 10.5385 23.6659 11.1958C24.6423 11.8531 23.1896 19.3959 23.1896 19.895C23.1896 20.3941 23.0627 19.6935 21.5675 21.5521C20.9001 22.3816 18.5355 21.1059 17.987 21.1059C16.9618 21.1059 15.5001 21.0286 15.2174 20.6606C15.1505 20.5736 14.0585 19.7299 13.9556 18.9006C13.6229 16.2206 14.2706 11.1072 15.0763 10.5648Z" fill="#892929"/>
<path fill-rule="evenodd" clip-rule="evenodd" d="M21.3029 21.6071H24.0499L24.1745 22.5535C24.1745 22.5535 23.1572 24.9423 23.0791 25.0775C23.001 25.2127 22.4624 25.5178 22.4624 25.5178C22.4624 25.5178 22.6206 25.7988 21.8214 25.3711C21.0221 24.9433 20.0695 24.2371 20.0695 24.2371C20.0695 24.2371 21.4184 23.5661 21.6795 23.0094C21.9406 22.4527 21.3029 21.6071 21.3029 21.6071Z" fill="#892929"/>
<path fill-rule="evenodd" clip-rule="evenodd" d="M21.3029 21.6071H24.0499L24.1745 22.5535C24.1745 22.5535 23.1572 24.9423 23.0791 25.0775C23.001 25.2127 22.4624 25.5178 22.4624 25.5178C22.4624 25.5178 22.6206 25.7988 21.8214 25.3711C21.0221 24.9433 20.0695 24.2371 20.0695 24.2371C20.0695 24.2371 21.4184 23.5661 21.6795 23.0094C21.9406 22.4527 21.3029 21.6071 21.3029 21.6071Z" fill="url(#paint1_linear)"/>
<path fill-rule="evenodd" clip-rule="evenodd" d="M17.9728 24.8043C19.6367 23.5629 21.3891 23.7888 22.7882 24.6844C22.9812 24.808 21.174 24.1709 20.031 25.2157C19.5562 25.6497 19.1377 28.5479 19.1377 28.5479C19.1377 28.5479 16.7544 28.3139 16.5094 28.3002C16.2643 28.2865 16.3089 26.0456 17.9728 24.8043Z" fill="#FEDB06"/>
<path fill-rule="evenodd" clip-rule="evenodd" d="M17.79 9.7403C18.192 9.7403 20.7201 9.949 21.0858 10.1386C21.4514 10.3281 21.7688 11.4506 21.6567 11.7094C21.5445 11.9681 19.8143 17.9267 19.2805 17.9267C18.7466 17.9267 17.7401 17.5253 17.5345 17.2167C17.3289 16.9081 16.8447 11.4522 16.8701 11.0309C16.8955 10.6097 17.388 9.7403 17.79 9.7403Z" fill="#FEDB06"/>
<path fill-rule="evenodd" clip-rule="evenodd" d="M9.99045 20.3028C10.1521 20.3579 10.162 20.3576 9.93372 20.4236C9.47969 20.5547 8.78234 20.5845 8.10717 20.4992C7.09247 20.3711 7.1885 19.8665 7.17932 19.5454C7.17015 19.2242 6.94879 18.6846 9.08288 18.3651C10.135 18.2076 10.6435 18.2239 10.9401 18.2239C11.2368 18.2239 11.9863 18.3466 12.6521 18.5329C12.8419 18.586 11.5397 18.3922 10.4284 18.6395C9.65723 18.8111 9.6145 18.9168 9.6145 19.5225C9.6145 19.7877 9.55017 20.1528 9.99045 20.3028Z" fill="#AD4242"/>
<path fill-rule="evenodd" clip-rule="evenodd" d="M25.1122 22.155C24.9493 21.1758 24.6742 20.7302 24.1746 20.5028C23.6749 20.2753 23.5524 20.4304 22.9459 20.2833C22.3394 20.1363 21.2641 20.0622 21.1759 20.7687C21.0876 21.4751 20.9488 22.4629 21.7202 22.1437C21.9924 22.0311 22.5424 21.7648 22.7882 21.7648C23.0339 21.7648 23.5545 22.1537 23.7348 22.6562C23.9286 23.1965 23.2468 24.3514 23.0153 24.9754C22.9234 25.223 22.4443 25.0022 22.534 25.1154C22.9234 25.6069 23.4896 24.6094 24.05 24.2099C24.6103 23.8104 25.2751 23.1342 25.1122 22.155Z" fill="#AD4242"/>
<path fill-rule="evenodd" clip-rule="evenodd" d="M21.5762 22.119C21.7181 22.1707 21.7675 22.1707 21.5264 22.2324C21.1072 22.3396 20.2265 22.199 19.6337 22.119C18.7427 21.9986 18.8624 21.5195 18.8544 21.2178C18.8463 20.916 18.6291 20.1859 20.5258 20.1089C21.507 20.0691 22.5478 19.855 23.1413 19.9784C23.7348 20.1018 24.0986 20.4147 24.2778 20.5028C24.457 20.5909 22.8857 20.3072 22.0308 20.5028C21.1759 20.6983 21.2461 20.6983 21.2461 21.2673C21.2461 21.5165 21.1896 21.978 21.5762 22.119Z" fill="#892929"/>
<path fill-rule="evenodd" clip-rule="evenodd" d="M19.1605 28.5479L23.1912 25.0774C23.1912 25.0774 21.8892 23.8764 20.5357 24.7077C19.1821 25.539 19.1605 28.5479 19.1605 28.5479Z" fill="#AD4242"/>
<path fill-rule="evenodd" clip-rule="evenodd" d="M6.38482 24.4465L13.2102 21.1058L18.3208 16.262L16.4792 13.5526L24.3826 21.607C24.3826 21.607 25.3421 23.4961 25.1418 24.1153C24.9415 24.7345 20.1895 28.6181 19.2805 29.2268C19.1282 29.3287 18.6702 29.3272 18.0112 29.2542C17.6233 29.2112 16.985 30.0305 16.4792 29.9444C15.9438 29.8531 15.0763 29.9239 14.3745 29.6231C13.9011 29.4201 14.0065 28.8323 13.6347 28.7531C12.9178 28.6005 12.2629 28.3953 11.5461 28.2324C11.116 28.1346 10.9869 28.6516 10.5298 28.5479C10.0726 28.4441 8.47913 28.3112 8.08983 28.0746C7.70054 27.838 7.94939 27.2244 7.68672 27.1623C6.3043 26.8351 6.26851 26.758 6.15715 26.758C5.75408 26.758 6.38482 24.4465 6.38482 24.4465Z" fill="black"/>
<path fill-rule="evenodd" clip-rule="evenodd" d="M14.1482 10.3171C14.6191 10.0974 15.7789 10.0743 16.8691 9.92547C17.2423 9.87454 14.5454 10.1417 14.1482 11.587C13.385 14.364 14.3347 19.3382 14.3347 19.6665C14.3347 20.1656 14.1691 18.4612 12.6739 20.3198C12.0065 21.1493 12.7302 19.1013 12.6272 18.2719C12.3614 16.1307 13.1877 12.3961 13.4154 11.128C13.5069 10.618 13.8415 10.4603 14.1482 10.3171Z" fill="#FEDB06"/>
<path fill-rule="evenodd" clip-rule="evenodd" d="M10.1702 21.9923C11.2149 19.9083 9.69117 20.1584 9.27808 20.4236C9.04448 20.5736 9.69415 20.5435 9.93374 20.4236C10.4806 20.1499 10.8428 19.929 11.9863 20.2025C13.1299 20.476 12.5446 22.6942 12.1119 23.2805C11.9334 23.5223 10.6831 23.2805 10.0699 23.2805C9.68587 23.2805 9.78622 22.7583 10.1702 21.9923Z" fill="#892929"/>
<path fill-rule="evenodd" clip-rule="evenodd" d="M10.1702 21.9923C11.2149 19.9083 9.69117 20.1584 9.27808 20.4236C9.04448 20.5736 9.69415 20.5435 9.93374 20.4236C10.4806 20.1499 10.8428 19.929 11.9863 20.2025C13.1299 20.476 12.5446 22.6942 12.1119 23.2805C11.9334 23.5223 10.6831 23.2805 10.0699 23.2805C9.68587 23.2805 9.78622 22.7583 10.1702 21.9923Z" fill="url(#paint2_linear)"/>
<path fill-rule="evenodd" clip-rule="evenodd" d="M14.1446 10.7233C14.3516 10.5127 14.8096 10.3806 15.1689 10.2498C15.5838 10.0987 16.5775 9.95123 16.8265 9.92552C17.8568 9.81918 14.9656 19.1674 14.9656 19.6665C14.9656 20.1657 14.8 18.4613 13.3048 20.3198C12.6374 21.1494 13.3611 19.1014 13.2581 18.272C12.9255 15.592 13.6986 11.1771 14.1446 10.7233Z" fill="#AD4242"/>
<path fill-rule="evenodd" clip-rule="evenodd" d="M15.0763 20.9831C14.8658 20.1223 15.1119 19.9132 14.3915 19.2956C13.671 18.678 12.5717 18.5787 11.8962 18.4057C11.2208 18.2326 9.76125 18.4372 9.64719 19.0581C9.53313 19.6791 9.35365 20.5474 10.3507 20.2668C10.7026 20.1679 11.5254 20.1912 11.8241 20.2668C12.1227 20.3425 12.3391 20.456 12.5721 20.8978C12.9221 21.5612 11.7574 23.0849 12.2235 23.3842C12.6895 23.6835 14.0806 22.9079 14.6108 22.3958C15.1411 21.8837 15.2868 21.8438 15.0763 20.9831Z" fill="#7D2727"/>
<path fill-rule="evenodd" clip-rule="evenodd" d="M7.01573 22.7112C8.17741 21.5073 10.8011 21.7342 10.8011 22.7112C10.8011 22.9015 9.93905 22.4098 8.90842 23.4597C7.5307 24.8633 7.5307 26.3394 7.5307 26.3394C7.5307 26.3394 6.6473 26.2285 6.38483 25.9974C6.12237 25.7663 5.85406 23.9151 7.01573 22.7112Z" fill="#FEDB06"/>
<path fill-rule="evenodd" clip-rule="evenodd" d="M14.349 21.6071C14.6386 21.6071 22.0433 22.6106 22.3734 22.8716C22.4563 22.9371 22.2623 23.2913 21.9149 23.79C21.5645 24.293 18.8568 24.3102 18.3208 24.9592C17.2701 26.2314 16.8104 28.1323 16.4874 28.2812C15.8363 28.5812 7.76969 26.5467 7.37197 26.2466C7.18273 26.1038 6.99713 24.5515 8.67418 22.8716C9.73881 21.8052 11.8938 22.9386 12.7484 22.2393C13.377 21.725 14.2846 21.6071 14.349 21.6071Z" fill="#AD4242"/>
<path fill-rule="evenodd" clip-rule="evenodd" d="M15.0898 20.3631C15.5801 20.7288 21.684 21.0771 21.9531 21.0771C22.2222 21.0771 21.684 22.6223 21.9531 22.9381C22.2222 23.2539 14.1446 22.3534 14.1446 21.9226C14.1446 21.4917 14.5994 19.9974 15.0898 20.3631Z" fill="#782323"/>
<path fill-rule="evenodd" clip-rule="evenodd" d="M15.5882 10.4434C16.083 10.1102 18.1899 9.41302 19.7539 9.65488C20.7602 9.81047 22.8367 10.3849 23.8131 11.0422C24.7895 11.6995 23.1896 19.3959 23.1896 19.895C23.1896 20.3941 23.0627 19.6935 21.5675 21.5521C20.9001 22.3816 18.5355 21.1059 17.987 21.1059C16.9618 21.1059 15.5001 21.0286 15.2174 20.6606C15.1506 20.5736 14.0585 19.7299 13.9556 18.9006C13.6229 16.2206 14.7825 10.9857 15.5882 10.4434Z" fill="#892929"/>
<path fill-rule="evenodd" clip-rule="evenodd" d="M23.1677 11.2871C23.3649 11.1683 23.5042 10.9998 23.7013 10.9624C24.0143 10.9029 24.5813 10.8978 24.701 10.8978C24.7486 10.8978 24.2339 11.6344 23.9226 11.9642C23.4755 12.4379 24.1136 20.4627 24.1136 20.8959C24.1136 21.4068 23.9481 19.6622 22.4528 21.5646C21.7854 22.4137 22.5091 20.3174 22.4062 19.4685C22.0735 16.7254 22.3599 11.7735 23.1677 11.2871Z" fill="#FEDB06"/>
<path fill-rule="evenodd" clip-rule="evenodd" d="M23.9156 11.2719C23.9521 11.229 24.074 11.0508 24.2919 10.9624C24.5099 10.874 24.5476 10.8978 24.701 10.8978C24.8054 10.8978 25.2016 12.9031 25.1372 14.4871C25.0199 17.3689 24.5099 20.5491 24.5099 20.8788C24.5099 21.3897 24.6598 19.6451 23.1645 21.5474C22.4971 22.3966 23.5335 20.2844 23.4305 19.4354C23.0978 16.6923 23.1228 12.2058 23.9156 11.2719Z" fill="#AD4242"/>
<path fill-rule="evenodd" clip-rule="evenodd" d="M21.3029 21.6071H24.0499L24.1745 22.5535C24.1745 22.5535 23.1572 24.9423 23.0791 25.0775C23.001 25.2127 22.4624 25.5178 22.4624 25.5178C22.4624 25.5178 22.6206 25.7988 21.8214 25.3711C21.0221 24.9433 20.0695 24.2371 20.0695 24.2371C20.0695 24.2371 21.4184 23.5661 21.6795 23.0094C21.9406 22.4527 21.3029 21.6071 21.3029 21.6071Z" fill="#892929"/>
<path fill-rule="evenodd" clip-rule="evenodd" d="M21.3029 21.6071H24.0499L24.1745 22.5535C24.1745 22.5535 23.1572 24.9423 23.0791 25.0775C23.001 25.2127 22.4624 25.5178 22.4624 25.5178C22.4624 25.5178 22.6206 25.7988 21.8214 25.3711C21.0221 24.9433 20.0695 24.2371 20.0695 24.2371C20.0695 24.2371 21.4184 23.5661 21.6795 23.0094C21.9406 22.4527 21.3029 21.6071 21.3029 21.6071Z" fill="url(#paint3_linear)"/>
<path fill-rule="evenodd" clip-rule="evenodd" d="M25.555 3.30875C25.7015 3.40407 25.7156 4.29104 25.7156 4.74972C25.7156 4.92354 25.5403 7.05927 25.3063 8.4952C25.1519 9.4435 24.88 10.3952 24.88 10.3952C24.88 10.3952 23.7963 10.8191 23.2785 10.8967C22.7608 10.9744 23.2362 6.98429 23.8131 5.76868C24.805 3.67888 25.4931 3.2685 25.555 3.30875Z" fill="#BF4949"/>
<path fill-rule="evenodd" clip-rule="evenodd" d="M17.9728 24.8043C19.6367 23.5629 21.3891 23.7888 22.7882 24.6844C22.9812 24.808 21.174 24.1709 20.031 25.2157C19.5562 25.6497 19.1377 28.5479 19.1377 28.5479C19.1377 28.5479 16.7544 28.3139 16.5094 28.3002C16.2643 28.2865 16.3089 26.0456 17.9728 24.8043Z" fill="#FEDB06"/>
<path fill-rule="evenodd" clip-rule="evenodd" d="M17.9616 9.96628C18.3636 9.96628 21.0579 9.95956 21.4236 10.1491C21.7893 10.3387 21.9404 11.6766 21.8282 11.9353C21.7161 12.1941 19.9859 18.1527 19.452 18.1527C18.9182 18.1527 17.9117 17.7512 17.7061 17.4427C17.5004 17.1341 17.0163 11.6781 17.0417 11.2569C17.0671 10.8357 17.5596 9.96628 17.9616 9.96628Z" fill="#F5D306"/>
<path fill-rule="evenodd" clip-rule="evenodd" d="M17.3458 2.74805C17.6233 2.74805 17.4249 8.40817 17.4249 8.40817C17.4249 8.40817 18.5792 9.61674 17.1846 9.88137C16.5735 9.99733 15.4675 9.85139 15.1553 9.82309C14.3816 9.75296 13.6894 9.65395 13.3115 9.28965C12.9337 8.92536 13.2672 6.23832 13.5571 4.91197C14.1253 2.31187 17.0683 2.74805 17.3458 2.74805Z" fill="#B84646"/>
<path fill-rule="evenodd" clip-rule="evenodd" d="M17.3457 2.7205C17.556 2.5371 25.5736 3.13598 25.2453 3.62347C25.0687 3.8857 24.0494 5.00112 23.5233 6.76073C23.0714 8.27223 23.1065 10.4817 22.9389 10.4817C22.3546 10.4817 21.8645 10.1066 20.8724 10.1066C19.7666 10.1066 18.1285 9.9896 17.5787 9.74239C16.8367 9.40872 17.0033 8.12412 17.1355 7.25649C17.5881 4.28578 17.1355 2.9039 17.3457 2.7205Z" fill="#9E2F2F"/>
<path fill-rule="evenodd" clip-rule="evenodd" d="M9.99045 20.3028C10.1521 20.3579 10.162 20.3576 9.93372 20.4236C9.47969 20.5547 8.78234 20.5845 8.10717 20.4992C7.09247 20.3711 7.1885 19.8665 7.17932 19.5454C7.17015 19.2242 6.94879 18.6846 9.08288 18.3651C10.135 18.2076 10.6435 18.2239 10.9401 18.2239C11.2368 18.2239 11.9863 18.3466 12.6521 18.5329C12.8419 18.586 11.5397 18.3922 10.4284 18.6395C9.65723 18.8111 9.6145 18.9168 9.6145 19.5225C9.6145 19.7877 9.55017 20.1528 9.99045 20.3028Z" fill="#AD4242"/>
<path fill-rule="evenodd" clip-rule="evenodd" d="M25.1122 22.155C24.9493 21.1758 24.6742 20.7302 24.1746 20.5028C23.6749 20.2753 23.5524 20.4304 22.9459 20.2833C22.3394 20.1363 21.2641 20.0622 21.1759 20.7687C21.0876 21.4751 20.9488 22.4629 21.7202 22.1437C21.9924 22.0311 22.5424 21.7648 22.7882 21.7648C23.0339 21.7648 23.5545 22.1537 23.7348 22.6562C23.9286 23.1965 23.2468 24.3514 23.0153 24.9754C22.9234 25.223 22.4443 25.0022 22.534 25.1154C22.9234 25.6069 23.4896 24.6094 24.05 24.2099C24.6103 23.8104 25.2751 23.1342 25.1122 22.155Z" fill="#AD4242"/>
<path fill-rule="evenodd" clip-rule="evenodd" d="M21.5762 22.119C21.7181 22.1707 21.7675 22.1707 21.5264 22.2324C21.1072 22.3396 20.2265 22.199 19.6337 22.119C18.7427 21.9986 18.8624 21.5195 18.8544 21.2178C18.8463 20.916 18.6291 20.1859 20.5258 20.1089C21.507 20.0691 22.5478 19.855 23.1413 19.9784C23.7348 20.1018 24.0986 20.4147 24.2778 20.5028C24.457 20.5909 22.8857 20.3072 22.0308 20.5028C21.1759 20.6983 21.2461 20.6983 21.2461 21.2673C21.2461 21.5165 21.1896 21.978 21.5762 22.119Z" fill="#952C2C"/>
<path fill-rule="evenodd" clip-rule="evenodd" d="M19.1605 28.5479L23.1912 25.0774C23.1912 25.0774 21.8892 23.8764 20.5357 24.7077C19.1821 25.539 19.1605 28.5479 19.1605 28.5479Z" fill="#AD4242"/>
<path fill-rule="evenodd" clip-rule="evenodd" d="M18.8488 5.04981C19.1181 4.76194 21.521 4.97255 21.7576 5.24745C21.9942 5.52235 22.1687 6.71186 22.1687 7.13864C22.1687 7.54182 22.1687 9.90552 21.367 10.1855C21.1043 10.2773 17.9519 10.3954 17.5076 9.5598C16.8095 8.24674 18.5796 5.33767 18.8488 5.04981Z" fill="#FFDC06"/>
<path fill-rule="evenodd" clip-rule="evenodd" d="M24.3333 3.19046C24.5511 2.76965 24.701 3.01854 24.701 3.25354C24.701 3.48855 22.3247 9.06182 22.6488 10.1887C22.7379 10.4985 22.7572 10.7412 22.7572 10.7412C22.7572 10.7412 22.5508 10.6549 22.4558 10.4817C22.3608 10.3084 22.3519 9.92863 22.3519 9.39145C22.3519 8.13549 22.8034 6.33421 23.4153 4.89313C23.7848 4.02287 24.2513 3.3489 24.3333 3.19046Z" fill="#C74C4C"/>
<path fill-rule="evenodd" clip-rule="evenodd" d="M13.3038 4.03255C13.6981 2.81578 16.2531 2.64253 17.0407 2.57548C18.4924 2.45189 17.8557 2.48542 20.4349 2.57548C22.367 2.64294 24.108 2.72704 25.1764 3.14446C25.8476 3.40672 25.4876 3.21516 25.555 3.30875C25.6436 3.43196 24.6671 4.33172 24.1288 5.61972C23.577 6.94023 23.0424 9.8715 23.3917 10.8068C23.4243 10.8941 23.0339 10.9808 22.7572 10.7412C22.6883 10.6815 22.6314 10.2672 22.6314 9.74031C22.6314 9.02714 23.1215 6.49385 23.5233 5.38359C23.9252 4.27332 24.7522 3.44915 24.6081 3.40037C22.939 2.83513 17.8429 2.74804 17.3458 2.74804C16.8486 2.74804 16.0549 2.97562 15.5053 3.14446C14.4374 3.4725 14.1446 3.42327 13.8664 4.77314C13.4466 6.81013 13.5668 9.28156 14.2279 9.58677C14.8889 9.89198 16.2407 9.91977 16.2407 9.91977L16.8691 9.9207C16.8691 9.9207 13.9605 9.83915 13.4451 9.58677C12.9297 9.33439 12.9909 8.43867 12.8868 7.58085C12.7827 6.72304 13.0187 4.91196 13.3038 4.03255Z" fill="#FFDC06"/>
<defs>
<linearGradient id="paint0_linear" x1="13.3263" y1="23.3409" x2="12.3491" y2="20.906" gradientUnits="userSpaceOnUse">
<stop stop-opacity="0.01"/>
<stop offset="1" stop-opacity="0.5"/>
</linearGradient>
<linearGradient id="paint1_linear" x1="24.9829" y1="25.5698" x2="23.7027" y2="22.5413" gradientUnits="userSpaceOnUse">
<stop stop-opacity="0.01"/>
<stop offset="1" stop-opacity="0.5"/>
</linearGradient>
<linearGradient id="paint2_linear" x1="13.3263" y1="23.3391" x2="12.2824" y2="20.8364" gradientUnits="userSpaceOnUse">
<stop stop-opacity="0.01"/>
<stop offset="1" stop-opacity="0.5"/>
</linearGradient>
<linearGradient id="paint3_linear" x1="24.9829" y1="25.5698" x2="23.7027" y2="22.5413" gradientUnits="userSpaceOnUse">
<stop stop-opacity="0.01"/>
<stop offset="1" stop-opacity="0.5"/>
</linearGradient>
</defs>
</svg>
