<svg width="24" height="24" viewBox="0 0 24 24" fill="none" xmlns="http://www.w3.org/2000/svg">
<path d="M7.75 7C7.33579 7 7 7.33579 7 7.75C7 8.16421 7.33579 8.5 7.75 8.5H16.25C16.6642 8.5 17 8.16421 17 7.75C17 7.33579 16.6642 7 16.25 7H7.75Z" fill="black"/>
<path d="M7.75 10.25C7.33579 10.25 7 10.5858 7 11C7 11.4142 7.33579 11.75 7.75 11.75H16.25C16.6642 11.75 17 11.4142 17 11C17 10.5858 16.6642 10.25 16.25 10.25H7.75Z" fill="black"/>
<path d="M7.75 13.5C7.33579 13.5 7 13.8358 7 14.25C7 14.6642 7.33579 15 7.75 15H13.25C13.6642 15 14 14.6642 14 14.25C14 13.8358 13.6642 13.5 13.25 13.5H7.75Z" fill="black"/>
<path fill-rule="evenodd" clip-rule="evenodd" d="M3.42164 23.9929L3.43285 23.9921C3.68189 23.9744 3.96332 23.9261 4.27481 23.84C6.05303 23.3482 7.5827 22.3609 9.00763 21.1326C10.0254 21.3582 11.0229 21.471 12 21.471C14.1781 21.471 16.1832 20.9947 18.0153 20.0421C19.8473 19.0895 21.3028 17.786 22.3817 16.1315C23.4606 14.477 24 12.6846 24 10.7543C24 8.79898 23.4606 6.99406 22.3817 5.33955C21.3028 3.68504 19.8473 2.38149 18.0153 1.42889C16.1832 0.476298 14.1781 0 12 0C9.82188 0 7.81679 0.476298 5.98473 1.42889C4.15267 2.38149 2.6972 3.68504 1.61832 5.33955C0.53944 6.99406 0 8.79898 0 10.7543C0.0203562 12.4339 0.427481 14.0007 1.22137 15.4546C2.01527 16.9086 3.1145 18.1369 4.51908 19.1397C4.51754 19.1473 4.51521 19.1615 4.5119 19.1816C4.48 19.3757 4.35736 20.1218 3.97792 20.8318C3.48635 21.7516 2.65082 22.6615 2.31654 22.9863C1.8256 23.4635 2.22657 24.03 3.30046 23.9988C3.33995 23.9976 3.38035 23.9957 3.42164 23.9929ZM9.33225 19.6681C8.87013 19.5657 8.38676 19.6874 8.02824 19.9965C7.0586 20.8323 6.08545 21.5057 5.05187 21.9687C5.13962 21.8276 5.2233 21.6839 5.30085 21.5388C5.84897 20.5132 5.99374 19.4152 5.9891 19.4381C6.10687 18.858 5.87243 18.2628 5.39063 17.9188C4.16245 17.042 3.2187 15.9826 2.5379 14.7358C1.86457 13.5026 1.51878 12.1798 1.5 10.7452C1.50165 9.08751 1.95479 7.56973 2.87479 6.15888C3.80615 4.7306 5.06289 3.59887 6.67672 2.75974C8.28329 1.92439 10.0492 1.5 12 1.5C13.9508 1.5 15.7167 1.92439 17.3233 2.75974C18.9371 3.59887 20.1939 4.7306 21.1252 6.15888C22.0469 7.57231 22.5 9.09306 22.5 10.7543C22.5 12.3865 22.0491 13.8953 21.1252 15.3121C20.1939 16.7404 18.9371 17.8722 17.3233 18.7113C15.7167 19.5466 13.9508 19.971 12 19.971C11.1391 19.971 10.2506 19.8717 9.33225 19.6681Z" fill="black"/>
</svg>
